<svg xmlns="http://www.w3.org/2000/svg" width="32" height="32" viewBox="0 -2 42 35">
  <g>
    <path fill="#E31837" d="M29.094,0.4c0,0,12.089,9.059,12.475,15.21c0.092,1.476-2.106,8.073-12.032,16.01c0,0-0.814,0.561-1.577-0.34c0,0-0.654-0.658-0.006-1.562c0,0,7.127-8.344,7.546-13.401c0,0,1.181-5.577-8.221-13.996c0,0-0.874-0.672-0.09-1.838C27.189,0.483,27.99-0.545,29.094,0.4"/>
    <path fill="#E85752" d="M22.229,0.4c0,0,12.09,9.059,12.475,15.21c0.092,1.476-2.106,8.073-12.032,16.01c0,0-0.815,0.561-1.577-0.34c0,0-0.654-0.658-0.007-1.562c0,0,7.127-8.344,7.546-13.401c0,0,1.182-5.577-8.22-13.996c0,0-0.874-0.672-0.09-1.838C20.324,0.483,21.125-0.545,22.229,0.4"/>
    <path fill="#ED8072" d="M15.364,0.4c0,0,12.09,9.059,12.475,15.21c0.092,1.476-2.105,8.073-12.031,16.01c0,0-0.815,0.561-1.578-0.34c0,0-0.654-0.658-0.006-1.562c0,0,7.127-8.344,7.546-13.401c0,0,1.181-5.577-8.221-13.996c0,0-0.873-0.672-0.09-1.838C13.459,0.483,14.26-0.545,15.364,0.4"/>
    <path fill="#F6BBAD" d="M8.499,0.4c0,0,12.09,9.059,12.475,15.21c0.093,1.476-2.106,8.073-12.031,16.01c0,0-0.815,0.561-1.578-0.34c0,0-0.654-0.658-0.006-1.562c0,0,7.127-8.344,7.546-13.401c0,0,1.182-5.577-8.22-13.996c0,0-0.875-0.672-0.091-1.838C6.594,0.483,7.395-0.545,8.499,0.4"/>
  </g>
</svg>
