<svg xmlns="http://www.w3.org/2000/svg" xmlns:xlink="http://www.w3.org/1999/xlink" version="1.1" id="Layer_1" x="0px" y="0px" width="162.447px" height="59.939px" viewBox="0 0 162.447 59.939" enable-background="new 0 0 162.447 59.939" xml:space="preserve">
    <g>
        <defs>
            <rect id="SVGID_1_" y="0" width="162.447" height="59.939"/>
        </defs>
        <clipPath id="SVGID_2_">
            <use xlink:href="#SVGID_1_" overflow="visible"/>
        </clipPath>
        <path clip-path="url(#SVGID_2_)" fill="#E31837" d="M29.094,0.4c0,0,12.089,9.059,12.475,15.21   c0.092,1.476-2.106,8.073-12.032,16.01c0,0-0.814,0.561-1.577-0.34c0,0-0.654-0.658-0.006-1.562c0,0,7.127-8.344,7.546-13.401   c0,0,1.181-5.577-8.221-13.996c0,0-0.874-0.672-0.09-1.838C27.189,0.483,27.99-0.545,29.094,0.4"/>
        <path clip-path="url(#SVGID_2_)" fill="#E85752" d="M22.229,0.4c0,0,12.09,9.059,12.475,15.21   c0.092,1.476-2.106,8.073-12.032,16.01c0,0-0.815,0.561-1.577-0.34c0,0-0.654-0.658-0.007-1.562c0,0,7.127-8.344,7.546-13.401   c0,0,1.182-5.577-8.22-13.996c0,0-0.874-0.672-0.09-1.838C20.324,0.483,21.125-0.545,22.229,0.4"/>
        <path clip-path="url(#SVGID_2_)" fill="#ED8072" d="M15.364,0.4c0,0,12.09,9.059,12.475,15.21   c0.092,1.476-2.105,8.073-12.031,16.01c0,0-0.815,0.561-1.578-0.34c0,0-0.654-0.658-0.006-1.562c0,0,7.127-8.344,7.546-13.401   c0,0,1.181-5.577-8.221-13.996c0,0-0.873-0.672-0.09-1.838C13.459,0.483,14.26-0.545,15.364,0.4"/>
        <path clip-path="url(#SVGID_2_)" fill="#F6BBAD" d="M8.499,0.4c0,0,12.09,9.059,12.475,15.21c0.093,1.476-2.106,8.073-12.031,16.01   c0,0-0.815,0.561-1.578-0.34c0,0-0.654-0.658-0.006-1.562c0,0,7.127-8.344,7.546-13.401c0,0,1.182-5.577-8.22-13.996   c0,0-0.875-0.672-0.091-1.838C6.594,0.483,7.395-0.545,8.499,0.4"/>
        <path clip-path="url(#SVGID_2_)" fill="#00B5CC" d="M9.017,33.829l-2.744,11.84c-0.118,0.51-0.196,1.137-0.196,1.411   c0,1.138,0.94,1.921,2.313,1.921c2.195,0,3.411-1.411,4.195-4.782l2.391-10.39h5.842l-4.469,19.328h-5.803l0.51-2.274   c-2.235,2.078-3.372,2.588-5.489,2.588C2.313,53.471,0,51.589,0,48.845c0-0.706,0.118-1.607,0.353-2.627l2.862-12.389H9.017z"/>
        <path clip-path="url(#SVGID_2_)" fill="#00B5CC" d="M18.74,53.157l4.469-19.328h5.802l-0.627,2.626   c2.314-2.116,3.45-2.705,5.489-2.705c0.274,0,0.706,0.04,1.215,0.079l-1.176,5.057c-2.156,0-3.332,0.275-4.508,1.02   c-1.608,0.94-2.313,2.273-3.098,5.528l-1.764,7.724H18.74z"/>
        <path clip-path="url(#SVGID_2_)" fill="#00B5CC" d="M41.479,35.278c2.156-1.449,3.607-1.959,5.41-1.959   c4.274,0,7.136,3.136,7.136,7.88c0,6.861-4.587,12.271-10.351,12.271c-2.666,0-4.43-0.784-5.802-2.666l-0.549,2.353h-5.802   l6.038-26.11h5.802L41.479,35.278z M44.733,37.632c-1.882,0-3.333,1.137-4.391,3.372c-0.667,1.489-1.137,3.332-1.137,4.587   c0,2.116,1.49,3.605,3.646,3.605c2.862,0,5.332-3.566,5.332-7.762C48.183,39.043,46.889,37.632,44.733,37.632"/>
        <path clip-path="url(#SVGID_2_)" fill="#00B5CC" d="M66.609,39.945c0.078-0.393,0.117-0.784,0.117-1.098   c0-1.138-0.94-1.843-2.587-1.843c-1.725,0-2.47,0.666-3.254,2.94l-5.646-0.313c0.589-2.432,1.843-4.156,3.764-5.215   c1.333-0.744,3.058-1.098,5.41-1.098c5.332,0,8.038,1.726,8.038,5.097c0,0.784-0.119,1.568-0.275,2.431l-2.274,9.684   c-0.157,0.745-0.275,1.451-0.275,1.726c0,0.313,0.04,0.509,0.236,0.901h-5.489c-0.196-0.51-0.235-0.745-0.235-1.098   c0-0.196,0.039-0.471,0.078-0.823l0.079-0.393c-1.764,1.921-3.372,2.627-5.881,2.627c-3.528,0-5.763-1.96-5.763-5.097   c0-1.999,0.823-3.842,2.235-4.9c1.686-1.333,4.077-2.039,8.076-2.353l3.45-0.274L66.609,39.945z M63.434,44.768   c-3.567,0.273-5.018,1.058-5.018,2.783c0,1.098,0.901,1.843,2.313,1.843c2.352,0,3.685-1.333,4.783-4.783L63.434,44.768z"/>
        <path clip-path="url(#SVGID_2_)" fill="#00B5CC" d="M83.193,53.157l2.744-11.801c0.118-0.511,0.196-1.138,0.196-1.411   c0-1.137-0.941-1.922-2.313-1.922c-2.195,0-3.411,1.412-4.195,4.783l-2.391,10.351h-5.803l4.43-19.328h5.842l-0.549,2.313   c2.235-2.077,3.372-2.626,5.45-2.626c3.293,0,5.605,1.921,5.605,4.664c0,0.706-0.117,1.569-0.353,2.628l-2.862,12.35H83.193z"/>
        <path clip-path="url(#SVGID_2_)" fill="#00B5CC" d="M105.147,39.945c0.079-0.393,0.118-0.784,0.118-1.098   c0-1.138-0.941-1.843-2.587-1.843c-1.726,0-2.47,0.666-3.254,2.94l-5.646-0.313c0.589-2.432,1.844-4.156,3.765-5.215   c1.333-0.744,3.057-1.098,5.41-1.098c5.332,0,8.036,1.726,8.036,5.097c0,0.784-0.117,1.568-0.273,2.431l-2.274,9.684   c-0.156,0.745-0.274,1.451-0.274,1.726c0,0.313,0.039,0.509,0.235,0.901h-5.488c-0.196-0.51-0.235-0.745-0.235-1.098   c0-0.196,0.039-0.471,0.078-0.823l0.079-0.393c-1.766,1.921-3.372,2.627-5.882,2.627c-3.527,0-5.764-1.96-5.764-5.097   c0-1.999,0.824-3.842,2.236-4.9c1.685-1.333,4.077-2.039,8.075-2.353l3.45-0.274L105.147,39.945z M101.973,44.768   c-3.568,0.273-5.019,1.058-5.019,2.783c0,1.098,0.901,1.843,2.313,1.843c2.353,0,3.686-1.333,4.783-4.783L101.973,44.768z"/>
        <polygon clip-path="url(#SVGID_2_)" fill="#E31837" points="119.732,46.375 111.107,46.375 112.284,41.16 120.909,41.16  "/>
        <path clip-path="url(#SVGID_2_)" fill="#00B5CC" d="M118.447,59.939l6.037-26.11h5.136l-0.393,1.882   c1.765-1.607,3.216-2.195,5.371-2.195c4.509,0,7.41,3.215,7.41,8.193c0,6.782-4.273,11.958-9.88,11.958   c-2.352,0-3.959-0.745-5.763-2.823l-2.117,9.096H118.447z M132.481,37.632c-1.96,0-3.371,1.216-4.116,3.567   c-0.51,1.529-0.823,3.254-0.823,4.392c0,2.312,1.49,3.803,3.725,3.803c2.822,0,4.94-3.176,4.94-7.489   C136.207,39.2,134.835,37.632,132.481,37.632"/>
        <path clip-path="url(#SVGID_2_)" fill="#00B5CC" d="M148.373,44.649c-0.079,0.354-0.079,0.706-0.079,0.862   c0,2.392,1.568,3.882,4.038,3.882c1.961,0,3.411-0.941,4.392-2.862l4.782,1.726c-1.921,3.725-4.822,5.41-9.291,5.41   c-5.92,0-9.527-3.254-9.527-8.664c0-3.725,1.725-7.567,4.391-9.645c1.804-1.412,3.765-2.039,6.352-2.039   c5.803,0,9.017,3.136,9.017,8.782c0,0.353,0,0.98-0.078,1.882l-0.038,0.666H148.373z M153.705,37.279   c-2.313,0-3.922,1.254-4.627,3.725h8.233C157.114,38.416,156.018,37.279,153.705,37.279"/>
    </g>
    </svg>